<svg xmlns="http://www.w3.org/2000/svg"><defs><font id="music-icon" horiz-adv-x="1024"><font-face units-per-em="1024" ascent="960" descent="-64"/><glyph horiz-adv-x="512"/><glyph unicode="" glyph-name="ok" d="M127.956 507.942c-17.12 0-33.184-6.508-45.28-18.335-24.928-24.405-24.928-64.08 0-88.516l252.128-246.494c24.192-23.654 66.304-23.654 90.496 0l512.064 500.622c12.096 11.827 18.752 27.566 18.752 44.274s-6.656 32.447-18.752 44.242c-24.192 23.654-66.336 23.654-90.528 0l-444.16-434.258c-12.512-12.203-32.768-12.203-45.248 0l-184.224 180.13c-12.096 11.827-28.16 18.335-45.248 18.335zM380.052 73.683c-34.208 0-66.336 13.016-90.496 36.671L37.428 356.879c-49.92 48.811-49.888 128.191 0 176.97 48.352 47.278 132.608 47.309 181.024 0l161.6-158.009 421.536 412.169c48.352 47.278 132.704 47.278 181.024 0 24.192-23.654 37.504-55.068 37.504-88.516 0-33.417-13.312-64.862-37.504-88.485L470.548 110.354c-24.16-23.654-56.288-36.671-90.496-36.671z"/><glyph unicode="" glyph-name="no" d="M127.923 896.002c-17.104 0-33.153-6.656-45.237-18.751-24.936-24.959-24.936-65.534 0-90.493l316.148-316.15c6.01-5.984 9.367-14.144 9.367-22.623s-3.357-16.639-9.367-22.623L82.718 109.244c-24.968-24.959-24.968-65.566 0-90.525 24.169-24.159 66.337-24.159 90.506 0l316.148 316.118c12.5 12.512 32.769 12.512 45.237 0L850.725 18.751c24.201-24.159 66.337-24.127 90.538 0 24.936 24.959 24.936 65.566 0 90.525L625.147 425.362c-12.5 12.512-12.5 32.767 0 45.247l316.116 316.118c12.085 12.096 18.734 28.159 18.734 45.279 0 17.087-6.65 33.151-18.734 45.247-24.201 24.159-66.337 24.191-90.538 0L534.577 561.135c-12.5-12.512-32.737-12.512-45.237 0L173.224 877.253c-12.116 12.096-28.165 18.751-45.301 18.751zM127.987-64C93.811-64 61.65-50.688 37.449-26.529c-49.905 49.918-49.905 131.132 0 181.018l293.513 293.495L37.417 741.511c-49.905 49.918-49.873 131.1 0 180.986C61.618 946.688 93.747 960 127.923 960c34.208 0 66.337-13.312 90.538-37.503l293.513-293.495 293.513 293.495C829.656 946.688 861.818 960 895.993 960c34.208 0 66.369-13.312 90.506-37.503 24.201-24.159 37.5-56.318 37.5-90.493 0-34.207-13.299-66.366-37.5-90.525L693.018 447.984l293.481-293.463c49.905-49.886 49.905-131.1 0-181.018C962.33-50.656 930.169-64 895.961-64c-34.176 0-66.305 13.344-90.474 37.503L512.006 266.966 218.493-26.529C194.324-50.688 162.162-64 127.987-64z"/><glyph unicode="" glyph-name="add" d="M614.4 550.4V960H409.6V550.4H0V345.6h409.6V-64h204.8v409.6H1024v204.8z"/><glyph unicode="" glyph-name="play-mini" d="M512-64C229.23-64 0 165.23 0 448s229.23 512 512 512 512-229.23 512-512S794.77-64 512-64zm0 68.267c245.067 0 443.733 198.666 443.733 443.733S757.067 891.733 512 891.733 68.267 693.067 68.267 448 266.933 4.267 512 4.267zm-64.683 367.585v152.296L599.737 448l-152.42-76.148zm-17.682 232.6c-.32.16-.639.128-.927.256-1.95.895-4.093 1.183-6.235 1.694-2.078.48-4.093 1.183-6.139 1.247-.352 0-.671.192-1.023.192-1.631 0-3.038-.703-4.636-.959-2.238-.32-4.412-.511-6.523-1.279-2.014-.767-3.709-1.982-5.468-3.101-1.695-1.055-3.421-1.95-4.892-3.261-1.759-1.598-2.974-3.58-4.316-5.53-.863-1.247-2.046-2.142-2.782-3.548-.16-.32-.128-.639-.256-.959-.895-1.918-1.151-3.996-1.631-6.106-.512-2.11-1.215-4.124-1.279-6.266 0-.352-.192-.607-.192-.959V320.129c0-.352.192-.639.192-.959.064-2.142.767-4.156 1.279-6.298.48-2.078.767-4.156 1.631-6.074.128-.32.096-.671.256-.959 1.503-3.037 3.517-5.626 5.723-7.928.48-.48 1.055-.799 1.567-1.247a31.573 31.573 0 017.482-5.083c.959-.416 1.854-.831 2.878-1.215 3.485-1.279 7.13-2.174 10.903-2.206h.096c.064 0 .128.032.192.032 4.764.032 9.177 1.247 13.237 3.133.256.128.576.064.863.192l255.952 127.872c10.839 5.435 17.682 16.496 17.682 28.611a32 32 0 01-17.682 28.611l-255.952 127.84z"/><glyph unicode="" glyph-name="playlist" d="M128-27.429c-30.281 0-54.857 24.576-54.857 54.857S97.719 82.285 128 82.285h768c30.281 0 54.857-24.576 54.857-54.857S926.281-27.429 896-27.429H128zm402.286 292.572c-30.281 0-54.857 24.576-54.857 54.857s24.576 54.857 54.857 54.857h402.286c30.281 0 54.857-24.576 54.857-54.857s-24.576-54.857-54.857-54.857H530.286zm438.857 292.571H676.572c-30.281 0-54.857 24.576-54.857 54.857s24.576 54.857 54.857 54.857h292.571c30.281 0 54.857-24.576 54.857-54.857s-24.576-54.857-54.857-54.857zm-834.136-196.78C80.552 387.302 57.732 453.057 84.1 507.512c26.368 54.418 92.123 77.275 146.578 50.907 54.455-26.405 77.275-92.16 50.907-146.578-26.368-54.455-92.123-77.275-146.578-50.907zm614.108 432.238c8.411 17.445 1.134 38.4-16.274 46.848l-164.608 79.762c-18.139 8.777-39.973 1.207-48.786-16.933L344.965 542.657c-22.894 44.873-63.415 81.262-119.735 94.903-70.875 17.152-147.931-11.045-190.391-70.327-73.362-102.473-25.563-244.407 93.586-282.185 87.515-27.794 181.87 18.322 221.915 100.974l220.306 454.693 131.621-63.781c17.445-8.448 38.4-1.17 46.848 16.238z"/><glyph unicode="" glyph-name="music" d="M725.333 152.958c-50.408 0-91.429 41.767-91.429 93.091s41.021 93.091 91.429 93.091 91.429-41.767 91.429-93.091-41.021-93.091-91.429-93.091zM451.048 780.98l365.714 106.806v-59.082L451.048 721.898v59.082zM298.667 28.836c-50.408 0-91.429 41.767-91.429 93.091s41.021 93.091 91.429 93.091 91.429-41.767 91.429-93.091-41.021-93.091-91.429-93.091zm579.047 900.127c0 9.744-4.51 18.897-12.13 24.793-7.619 5.834-17.493 7.758-26.728 5.027L412.189 834.196c-13.074-3.817-22.095-15.981-22.095-29.82V245.272c-25.539 19.704-56.99 31.806-91.429 31.806-84.023 0-152.381-69.601-152.381-155.152S214.642-33.226 298.665-33.226s152.381 69.601 152.381 155.152v535.428L816.76 764.098V369.393c-25.539 19.704-56.99 31.806-91.429 31.806-84.023 0-152.381-69.601-152.381-155.152S641.308 90.895 725.331 90.895s152.381 69.601 152.381 155.152v682.915z"/><glyph unicode="" glyph-name="Search" d="M861.867 149.333l-217.6 217.6c34.133 42.667 55.467 98.133 55.467 162.133 0 149.333-119.467 268.8-268.8 268.8s-268.8-119.467-268.8-268.8 119.467-268.8 268.8-268.8c59.733 0 115.2 21.333 162.133 55.467L806.4 102.4l55.467 46.933zm-652.8 379.734c0 119.467 98.133 217.6 221.867 217.6S652.801 648.534 652.801 524.8s-98.133-221.867-221.867-221.867-221.867 102.4-221.867 226.133z"/><glyph unicode="" glyph-name="clear" d="M618.66 82.286c-19.609 0-35.556 16.384-35.556 36.571v475.429c0 20.187 15.947 36.571 35.556 36.571 19.662 0 35.556-16.384 35.556-36.571V118.857c0-20.187-15.893-36.571-35.556-36.571zm-213.334 0c-19.609 0-35.556 16.384-35.556 36.571v475.429c0 20.187 15.947 36.571 35.556 36.571 19.662 0 35.556-16.384 35.556-36.571V118.857c0-20.187-15.893-36.571-35.556-36.571zM227.548 9.143v731.429h568.889V9.143H227.548zm195.556 804.571v73.143h177.778v-73.143H423.104zm480 0H671.993v109.714c0 20.187-15.893 36.571-35.556 36.571H387.548c-19.609 0-35.556-16.384-35.556-36.571V813.714H120.899c-19.627 0-35.573-16.384-35.573-36.571s15.947-36.571 35.573-36.571h35.538v-768c0-20.187 15.947-36.571 35.556-36.571h640c19.644 0 35.556 16.384 35.556 36.571v768h35.556c19.644 0 35.556 16.384 35.556 36.571s-15.911 36.571-35.556 36.571z"/><glyph unicode="" glyph-name="close" d="M592.457 448l409.6-409.6L921.6-42.057 512 367.543l-409.6-409.6L21.943 38.4l409.6 409.6-409.6 409.6 80.457 80.457 409.6-409.6 402.286 409.6 87.771-80.457z"/><glyph unicode="" glyph-name="like" d="M718.769 861.538c-19.057 0-34.462-15.439-34.462-34.462s15.404-34.462 34.462-34.462c76.022 0 137.846-61.824 137.846-137.846 0-19.023 15.404-34.462 34.462-34.462s34.462 15.439 34.462 34.462c0 113.999-92.736 206.769-206.769 206.769zM512-30.602C209.566 119.444 29.538 374.631 29.538 654.769c0 152.01 123.682 275.692 275.692 275.692 55.621 0 109.484-17.162 155.146-48.453-53.484-60.756-86.223-140.155-86.223-227.239 0-19.023 15.439-34.462 34.462-34.462s34.462 15.439 34.462 34.462c0 82.053 36.254 155.663 93.322 206.183 5.307 4.721 10.786 9.167 16.404 13.44 1.241.93 2.516 1.895 3.791 2.791a262.67 262.67 0 0016.852 11.407 222.32 222.32 0 004.79 2.929 290.986 290.986 0 0016.99 9.374c1.999.999 4.032 1.93 6.065 2.929 5.514 2.585 11.097 5.1 16.783 7.306 2.516.999 5.1 1.895 7.65 2.826 5.342 1.93 10.718 3.791 16.197 5.376 3.239.93 6.548 1.723 9.856 2.55 4.894 1.241 9.856 2.516 14.853 3.481 4.514.862 9.132 1.447 13.75 2.102 3.929.551 7.857 1.241 11.82 1.654 8.753.827 17.61 1.344 26.57 1.344 152.01 0 275.692-123.682 275.692-275.692 0-280.138-180.027-535.326-482.462-685.371z"/><glyph unicode="" glyph-name="not-like" d="M704 832c-17.696 0-32-14.336-32-32s14.304-32 32-32c70.592 0 128-57.408 128-128 0-17.664 14.304-32 32-32s32 14.336 32 32c0 105.856-86.112 192-192 192zM512 3.584C231.168 142.912 64 379.872 64 640c0 141.152 114.848 256 256 256 51.648 0 101.664-15.936 144.064-44.992C414.4 794.592 384 720.864 384 640c0-17.664 14.336-32 32-32s32 14.336 32 32c0 76.192 33.664 144.544 86.656 191.456 4.928 4.384 10.016 8.512 15.232 12.48 1.152.864 2.336 1.76 3.52 2.592a243.979 243.979 0 0015.648 10.592c1.472.928 2.944 1.824 4.448 2.72a269.966 269.966 0 0015.776 8.704c1.856.928 3.744 1.792 5.632 2.72 5.12 2.4 10.304 4.736 15.584 6.784 2.336.928 4.736 1.76 7.104 2.624 4.96 1.792 9.952 3.52 15.04 4.992 3.008.864 6.08 1.6 9.152 2.368 4.544 1.152 9.152 2.336 13.792 3.232 4.192.8 8.48 1.344 12.768 1.952 3.648.512 7.296 1.152 10.976 1.536C687.456 895.52 695.68 896 704 896c141.152 0 256-114.848 256-256 0-260.128-167.168-497.088-448-636.416zM704 960c-9.888 0-19.712-.576-29.504-1.504-3.584-.32-7.104-.864-10.688-1.312a299.042 299.042 0 01-17.824-2.72c-4.352-.8-8.64-1.696-12.896-2.656-4.896-1.12-9.76-2.432-14.656-3.776-4.608-1.28-9.216-2.528-13.76-4-4.096-1.344-8.096-2.944-12.16-4.48-10.688-4-21.12-8.48-31.2-13.536-2.048-1.024-4.096-1.888-6.08-2.944-5.344-2.816-10.496-5.952-15.648-9.056-2.848-1.696-5.696-3.36-8.48-5.184-5.024-3.2-9.824-6.624-14.624-10.08-1.472-1.088-3.008-2.016-4.48-3.104C456.672 937.312 389.472 960 320 960 143.552 960 0 816.448 0 640 0 350.368 186.24 88.384 498.176-60.864 502.56-62.944 507.264-64 512-64s9.44 1.056 13.824 3.136C837.76 88.384 1024 350.368 1024 640c0 176.448-143.552 320-320 320z"/><glyph unicode="" glyph-name="pause" d="M997.27 396.234c-17.554 2.974-34.212-8.601-37.282-26.027C922.259 155.565 735.339-.244 515.613-.244c-248.822 0-451.217 201.053-451.217 448.148s202.396 448.148 451.217 448.148c219.725 0 406.646-155.841 444.439-370.451 3.07-17.394 19.824-28.968 37.282-26.027 17.522 3.069 29.224 19.632 26.187 37.026C980.292 781.905 766.674 960 515.614 960 231.301 960 .001 730.267.001 447.904s231.3-512.096 515.613-512.096c251.06 0 464.678 178.095 507.843 423.432 3.038 17.394-8.697 33.924-26.187 36.994zM383.628 582.556V326.804c0-17.647 14.29-31.937 31.969-31.937 17.647 0 31.969 14.29 31.969 31.937v255.752c0 17.679-14.322 31.969-31.969 31.969-17.679 0-31.969-14.29-31.969-31.969zm255.753-255.753v255.752c0 17.679-14.322 31.969-31.969 31.969-17.679 0-31.969-14.29-31.969-31.969V326.803c0-17.647 14.29-31.937 31.969-31.937 17.647 0 31.969 14.29 31.969 31.937z"/><glyph unicode="" glyph-name="play" d="M447.317 371.742v152.324l152.42-76.162-152.42-76.162zm-17.682 232.643c-.32.16-.639.128-.927.256-1.95.895-4.093 1.183-6.235 1.695-2.078.48-4.093 1.183-6.139 1.247-.352 0-.671.192-1.023.192-1.631 0-3.038-.703-4.636-.959-2.238-.32-4.412-.512-6.523-1.279-2.014-.767-3.709-1.982-5.468-3.101-1.695-1.055-3.421-1.95-4.892-3.261-1.759-1.599-2.974-3.581-4.316-5.531-.863-1.247-2.046-2.142-2.782-3.549-.16-.32-.128-.639-.256-.959-.895-1.918-1.151-3.997-1.631-6.107-.512-2.11-1.215-4.125-1.279-6.267 0-.352-.192-.608-.192-.959V320.011c0-.352.192-.639.192-.959.064-2.142.767-4.157 1.279-6.299.48-2.078.767-4.157 1.631-6.075.128-.32.096-.671.256-.959 1.503-3.038 3.517-5.627 5.723-7.93.48-.48 1.055-.799 1.567-1.247a31.578 31.578 0 017.482-5.084c.959-.416 1.854-.831 2.878-1.215 3.485-1.279 7.13-2.174 10.903-2.206 5.052.064 9.464 1.279 13.525 3.165L685.587 419.29c10.839 5.436 17.682 16.499 17.682 28.617s-6.842 23.181-17.682 28.617L429.635 604.388zM997.27 396.234c-17.554 2.974-34.212-8.601-37.282-26.027C922.259 155.565 735.339-.244 515.613-.244c-248.822 0-451.217 201.053-451.217 448.148s202.396 448.148 451.217 448.148c219.725 0 406.646-155.841 444.439-370.451 3.07-17.394 19.824-28.968 37.282-26.027 17.522 3.069 29.224 19.632 26.187 37.026C980.292 781.905 766.674 960 515.614 960 231.301 960 .001 730.267.001 447.904s231.3-512.096 515.613-512.096c251.06 0 464.678 178.095 507.843 423.432 3.038 17.394-8.697 33.924-26.187 36.994z"/><glyph unicode="" glyph-name="prev" d="M508.387 960C257.295 960 43.709 781.937.48 536.6c-3.038-17.394 8.633-33.956 26.187-36.994 17.394-2.91 34.212 8.601 37.25 25.995 37.793 214.641 224.745 370.451 444.47 370.451 248.822 0 451.217-201.02 451.217-448.147C959.604 200.81 757.209-.21 508.387-.21c-219.725 0-406.645 155.809-444.406 370.451-3.07 17.362-19.76 29-37.25 25.995-17.522-3.038-29.224-19.6-26.187-36.994 43.165-245.336 256.751-423.4 507.843-423.4C792.7-64.158 1024 165.543 1024 447.905S792.7 960 508.387 960zm196.097-435.933V371.743l-152.292 76.162 152.292 76.162zm-255.76-152.324L296.4 447.905l152.324 76.162V371.743zm63.756 205.049c-.064 2.11-.799 4.157-1.279 6.235-.512 2.078-.767 4.221-1.663 6.171-.128.256-.096.608-.256.927-.671 1.407-1.886 2.302-2.782 3.549-1.343 1.95-2.558 3.901-4.285 5.5-1.471 1.343-3.197 2.206-4.86 3.293-1.791 1.087-3.485 2.334-5.5 3.07-2.11.767-4.285.959-6.523 1.311-1.599.256-2.974.927-4.636.927-.352 0-.671-.192-.991-.192-2.078-.032-4.061-.767-6.171-1.247s-4.285-.767-6.203-1.663c-.288-.128-.639-.096-.959-.256l-255.76-127.896a32.01 32.01 0 01-17.682-28.617c0-12.118 6.842-23.149 17.682-28.585l255.76-127.896c.288-.128.608-.064.895-.224 4.061-1.854 8.473-3.101 13.205-3.133.064 0 .128-.032.192-.032h.064c3.805.032 7.45.959 10.967 2.238.991.384 1.886.767 2.814 1.215a33.662 33.662 0 017.514 5.052c.48.48 1.087.767 1.535 1.247 2.238 2.302 4.221 4.924 5.723 7.93.16.32.128.671.256.927.895 1.95 1.151 4.061 1.663 6.139.48 2.11 1.215 4.157 1.279 6.267 0 .352.192.639.192.959v76.162l209.494-104.747c.288-.128.608-.064.863-.224 4.061-1.854 8.473-3.101 13.205-3.133.064 0 .128-.032.192-.032h.064c3.805.032 7.482.959 10.967 2.238.991.384 1.918.767 2.846 1.215a32.758 32.758 0 017.482 5.052c.512.48 1.087.767 1.567 1.247 2.206 2.302 4.221 4.924 5.723 7.93.16.32.128.671.256.927.895 1.95 1.151 4.061 1.631 6.139.512 2.11 1.215 4.157 1.279 6.267 0 .352.192.639.192.959V575.8c0 .352-.192.639-.192.991-.064 2.11-.767 4.157-1.279 6.235-.48 2.078-.735 4.221-1.631 6.171-.128.256-.096.608-.256.927-.703 1.407-1.918 2.27-2.782 3.517-1.343 1.982-2.558 3.933-4.316 5.531-1.471 1.343-3.165 2.206-4.796 3.261-1.823 1.119-3.549 2.366-5.563 3.101-2.078.767-4.284.959-6.459 1.311-1.599.256-3.038.927-4.7.927-.32 0-.639-.192-.991-.192-2.078-.032-4.093-.767-6.171-1.247-2.11-.48-4.253-.767-6.203-1.663-.288-.128-.608-.096-.927-.256L512.672 499.667v76.13c0 .352-.192.639-.192.991z"/><glyph unicode="" glyph-name="loop" d="M967.026 400.994c-17.098 2.917-33.389-8.316-36.399-25.166C893.701 167.894 711.212 16.994 496.234 16.994c-214.512 0-396.971 150.9-433.835 358.803-3.01 16.849-19.301 28.113-36.399 25.197C8.933 398.046-2.486 381.91.462 365.154 42.601 127.524 251.125-44.942 496.73-44.942c245.077 0 453.601 172.466 495.833 410.065.31 1.8.465 3.631.465 5.399 0 14.739-10.736 27.834-26.003 30.472zM25.994 514.064c17.098-2.948 33.389 8.316 36.399 25.166 36.926 207.934 219.415 358.834 434.393 358.834 214.512 0 396.971-150.9 433.835-358.803 3.01-16.849 19.27-28.144 36.368-25.197 15.298 2.638 26.034 15.732 26.034 30.472 0 1.769-.155 3.568-.465 5.368C950.419 787.534 741.895 960 496.29 960 251.213 960 42.689 787.534.457 549.935c-2.917-17.16 8.471-32.923 25.538-35.871zm642.771 107.544l61.874-41.829-61.874-41.86v83.689zm-45.583-170.17c4.561-2.482 9.588-3.693 14.615-3.693 6.02 0 12.009 1.769 17.16 5.275l148.697 100.6c8.626 5.834 13.777 15.67 13.777 26.159 0 10.519-5.151 20.325-13.777 26.159L654.957 706.476c-9.495 6.423-21.721 7.044-31.775 1.552-10.054-5.461-16.353-16.105-16.353-27.71V610.19H310.303c-51.355 0-93.091-41.736-93.091-93.091V297.963c0-51.324 41.736-93.091 93.091-93.091h356.848c51.324 0 93.091 41.767 93.091 93.091v39.75c0 17.16-13.902 31.03-31.03 31.03-17.16 0-31.03-13.871-31.03-31.03v-39.75c0-17.129-13.933-31.03-31.03-31.03H310.304c-17.129 0-31.03 13.902-31.03 31.03v219.136c0 17.129 13.902 31.03 31.03 31.03H606.83v-68.98c0-11.574 6.299-22.249 16.353-27.71zm-134.575 54.998c-6.554-7.1-14.746-13.38-24.576-19.388-9.83-5.461-18.842-9.284-27.58-11.469v-29.491c18.022 5.188 33.041 13.38 44.783 24.576V311.466h29.764v194.97h-22.391z"/><glyph unicode="" glyph-name="sequence" d="M967.026 400.994c-17.098 2.917-33.389-8.316-36.399-25.166C893.701 167.894 711.212 16.994 496.234 16.994c-214.512 0-396.971 150.9-433.835 358.803-3.01 16.849-19.301 28.113-36.399 25.197C8.933 398.046-2.486 381.91.462 365.154 42.601 127.524 251.125-44.942 496.73-44.942c245.077 0 453.601 172.466 495.833 410.065.31 1.8.465 3.631.465 5.399 0 14.739-10.736 27.834-26.003 30.472zM25.994 514.064c17.098-2.948 33.389 8.316 36.399 25.166 36.926 207.934 219.415 358.834 434.393 358.834 214.512 0 396.971-150.9 433.835-358.803 3.01-16.849 19.27-28.144 36.368-25.197 15.298 2.638 26.034 15.732 26.034 30.472 0 1.769-.155 3.568-.465 5.368C950.419 787.534 741.895 960 496.29 960 251.213 960 42.689 787.534.457 549.935c-2.917-17.16 8.471-32.923 25.538-35.871zm642.771 107.544l61.874-41.829-61.874-41.86v83.689zm-45.583-170.17c4.561-2.482 9.588-3.693 14.615-3.693 6.02 0 12.009 1.769 17.16 5.275l148.697 100.6c8.626 5.834 13.777 15.67 13.777 26.159 0 10.519-5.151 20.325-13.777 26.159L654.957 706.476c-9.495 6.423-21.721 7.044-31.775 1.552-10.054-5.461-16.353-16.105-16.353-27.71V610.19H310.303c-51.355 0-93.091-41.736-93.091-93.091V297.963c0-51.324 41.736-93.091 93.091-93.091h356.848c51.324 0 93.091 41.767 93.091 93.091v39.75c0 17.16-13.902 31.03-31.03 31.03-17.16 0-31.03-13.871-31.03-31.03v-39.75c0-17.129-13.933-31.03-31.03-31.03H310.304c-17.129 0-31.03 13.902-31.03 31.03v219.136c0 17.129 13.902 31.03 31.03 31.03H606.83v-68.98c0-11.574 6.299-22.249 16.353-27.71z"/><glyph unicode="" glyph-name="random" d="M703.621 554.519v86.388l63.801-43.178-63.801-43.21zm139.088 70.212L689.383 728.512c-9.791 6.63-22.397 7.271-32.764 1.602-10.367-5.637-16.862-16.624-16.862-28.604v-64.863h-63.865c-105.652 0-191.626-87.317-191.626-194.653 0-71.589-57.273-129.79-127.665-129.79h-31.996c-17.63 0-31.932-14.51-31.932-32.447s14.302-32.447 31.932-32.447h31.996c105.62 0 191.562 87.317 191.562 194.685 0 71.557 57.273 129.758 127.729 129.758h63.865v-77.867c0-11.98 6.495-22.966 16.862-28.604 4.703-2.595 9.887-3.844 15.07-3.844a31.386 31.386 0 0117.694 5.445l153.326 103.845c8.895 6.022 14.206 16.176 14.206 27.002 0 10.859-5.311 20.98-14.206 27.002zm-618.105-52.979H256.6c18.878 0 37.724-4.644 56.026-13.837a31.077 31.077 0 0114.11-3.363c11.807 0 23.101 6.63 28.669 18.066 7.839 16.048 1.344 35.522-14.462 43.466-27.197 13.645-55.546 20.564-84.342 20.564h-31.996c-17.63 0-31.932-14.51-31.932-32.447s14.302-32.447 31.932-32.447zm479.017-242.315l63.801-43.21-63.801-43.178v86.388zm-47.003-175.626c4.703-2.562 9.887-3.812 15.07-3.812a31.386 31.386 0 0117.694 5.445l153.326 103.781c8.895 6.022 14.206 16.144 14.206 27.002 0 10.826-5.311 20.98-14.206 27.002L689.382 417.074c-9.791 6.662-22.397 7.271-32.764 1.634s-16.862-16.656-16.862-28.636v-77.867h-63.865c-18.91 0-37.756 4.677-56.122 13.837-15.87 7.944-34.94 1.377-42.747-14.734-7.839-16.048-1.312-35.49 14.494-43.434 27.197-13.645 55.578-20.564 84.374-20.564h63.865v-64.863c0-11.98 6.495-22.966 16.862-28.636zm340.601 242.507c-17.63 3.043-34.428-8.552-37.532-25.977C921.611 155.733 733.409-.066 511.771-.066 290.58-.066 102.41 155.733 64.399 370.341c-3.104 17.361-19.87 29.02-37.5 25.977-17.63-3.011-29.405-19.699-26.365-36.996C43.985 114.06 259-64 512.251-64c252.707 0 467.754 178.06 511.301 423.29.288 1.89.448 3.78.448 5.573 0 15.247-11.071 28.764-26.781 31.454zM26.803 499.682c17.63-3.043 34.428 8.552 37.532 25.945 38.076 214.64 226.278 370.439 447.916 370.439 221.191 0 409.361-155.799 447.372-370.407 3.104-17.361 19.87-29.02 37.5-25.977 15.742 2.691 26.813 16.208 26.813 31.454 0 1.794-.128 3.684-.448 5.509-43.451 245.294-258.466 423.354-511.717 423.354-252.739 0-467.754-178.06-511.301-423.322-3.008-17.681 8.735-33.985 26.333-36.996z"/><glyph unicode="" glyph-name="back" d="M707.458 897.939c-17.399 0-33.755-6.454-46.071-18.184L279.593 528.12c-18.05-17.222-28.248-40.588-28.248-65.443 0-24.886 10.198-48.252 28.639-65.846l381.37-350.394c24.632-23.459 67.542-23.459 92.174 0 12.316 11.729 19.093 27.276 19.093 43.846s-6.777 32.178-19.093 43.908L475.573 396.769c-18.539 17.656-28.737 41.022-28.737 65.908 0 24.855 10.198 48.221 28.639 65.815l278.118 263.54c12.251 11.667 19.028 27.276 19.028 43.846s-6.777 32.147-19.093 43.877c-12.316 11.729-28.672 18.184-46.071 18.184zm0-931.747c-34.797 0-67.542 12.909-92.174 36.368l-52.326 49.835-328.555 300.094c-31.279 29.758-48.221 68.732-48.221 110.189s16.943 80.4 47.732 109.692l381.794 351.635C639.949 947.092 672.661 960 707.458 960c34.83 0 67.542-12.909 92.141-36.368 24.632-23.428 38.186-54.613 38.186-87.754s-13.554-64.357-38.186-87.785l-278.118-263.54c-6.093-5.803-9.481-13.591-9.481-21.876s3.389-16.105 9.546-21.938l277.955-262.578c24.73-23.552 38.284-54.737 38.284-87.878s-13.554-64.326-38.186-87.754C775-20.899 742.255-33.807 707.458-33.807z"/><glyph unicode="" glyph-name="mine" d="M736 339.394c-17.664 0-32-13.902-32-31.03s14.336-31.03 32-31.03c123.52 0 224-97.435 224-217.212 0-17.098-14.368-31.03-32-31.03H96c-17.632 0-32 13.933-32 31.03 0 119.777 100.48 217.212 224 217.212 17.664 0 32 13.902 32 31.03s-14.336 31.03-32 31.03c-158.784 0-288-125.3-288-279.273C0 8.797 43.072-32.97 96-32.97h832c52.928 0 96 41.767 96 93.091 0 153.972-129.216 279.273-288 279.273zM512 897.939c123.488 0 224-125.269 224-279.273 0-153.972-100.48-279.273-224-279.273-123.488 0-224 125.3-224.032 279.273 0 154.003 100.512 279.273 224.032 279.273zm0-620.606c158.784 0 288 153.135 288 341.333S670.784 959.999 512 959.999c-78.304 0-151.488-36.399-206.048-102.524C253.088 793.366 224 708.561 224 618.666c0-188.199 129.216-341.333 288-341.333z"/><glyph unicode="" glyph-name="next" d="M515.613-64.159c251.092 0 464.678 178.063 507.907 423.4 3.038 17.394-8.633 33.956-26.187 36.994-17.394 2.91-34.212-8.601-37.25-25.995C922.29 155.599 735.338-.211 515.613-.211c-248.822 0-451.217 201.02-451.217 448.147 0 247.095 202.395 448.115 451.217 448.115 219.725 0 406.645-155.809 444.406-370.451 3.07-17.362 19.76-29 37.25-25.995 17.522 3.038 29.224 19.6 26.187 36.994-43.165 245.336-256.751 423.4-507.843 423.4C231.3 959.999 0 730.298 0 447.936S231.3-64.159 515.613-64.159zM319.516 371.775v152.324l152.292-76.162-152.292-76.162zm255.76 152.324L727.6 447.937l-152.324-76.162v152.324zm-63.756-205.05c.064-2.11.799-4.157 1.279-6.235.512-2.078.767-4.221 1.663-6.171.128-.256.096-.608.256-.927.671-1.407 1.886-2.302 2.782-3.549 1.343-1.95 2.558-3.901 4.285-5.5 1.471-1.343 3.197-2.206 4.86-3.293 1.791-1.087 3.485-2.334 5.5-3.07 2.11-.767 4.285-.959 6.523-1.311 1.599-.256 2.974-.927 4.636-.927.352 0 .671.192.991.192 2.078.032 4.061.767 6.171 1.247s4.285.767 6.203 1.663c.288.128.639.096.959.256l255.76 127.896c10.839 5.436 17.682 16.499 17.682 28.617s-6.842 23.149-17.682 28.585l-255.76 127.896c-.288.128-.608.064-.895.224-4.061 1.854-8.473 3.101-13.205 3.133-.064 0-.128.032-.192.032h-.064c-3.805-.032-7.45-.959-10.967-2.238a37.415 37.415 0 01-2.814-1.215 33.662 33.662 0 01-7.514-5.052c-.48-.48-1.087-.767-1.535-1.247-2.238-2.302-4.221-4.924-5.723-7.93-.16-.32-.128-.671-.256-.927-.895-1.95-1.151-4.061-1.663-6.139-.48-2.11-1.215-4.157-1.279-6.267 0-.352-.192-.639-.192-.959v-76.162L301.835 604.418c-.288.128-.608.064-.863.224-4.061 1.854-8.473 3.101-13.205 3.133-.064 0-.128.032-.192.032h-.064c-3.805-.032-7.482-.959-10.967-2.238a38.197 38.197 0 01-2.846-1.215 32.758 32.758 0 01-7.482-5.052c-.512-.48-1.087-.767-1.567-1.247-2.206-2.302-4.221-4.924-5.723-7.93-.16-.32-.128-.671-.256-.927-.895-1.95-1.151-4.061-1.631-6.139-.512-2.11-1.215-4.157-1.279-6.267 0-.352-.192-.639-.192-.959V320.041c0-.352.192-.639.192-.991.064-2.11.767-4.157 1.279-6.235.48-2.078.735-4.221 1.631-6.171.128-.256.096-.608.256-.927.703-1.407 1.918-2.27 2.782-3.517 1.343-1.982 2.558-3.933 4.316-5.531 1.471-1.343 3.165-2.206 4.796-3.261 1.823-1.119 3.549-2.366 5.563-3.101 2.078-.767 4.284-.959 6.459-1.311 1.599-.256 3.038-.927 4.7-.927.32 0 .639.192.991.192 2.078.032 4.093.767 6.171 1.247 2.11.48 4.253.767 6.203 1.663.288.128.608.096.927.256l209.494 104.747v-76.13c0-.352.192-.639.192-.991z"/><glyph unicode="" glyph-name="dismiss" d="M512-64C229.23-64 0 165.23 0 448s229.23 512 512 512 512-229.23 512-512S794.77-64 512-64zm-7.098 564.353L301.255 704 256 658.745l203.647-203.647L256 251.451l45.255-45.255 203.647 203.647 203.647-203.647 45.255 45.255-203.647 203.647 203.647 203.647L708.549 704 504.902 500.353z"/><glyph unicode="" glyph-name="pause-mini" d="M512 960C230.4 960 0 729.6 0 448S230.4-64 512-64s512 230.4 512 512-230.4 512-512 512zm0-954.88C266.24 5.12 69.12 204.8 69.12 448S266.24 890.88 512 890.88 954.88 693.76 954.88 448 757.76 5.12 512 5.12zm89.6 601.6c-17.92 0-30.72-15.36-30.72-30.72V320c0-17.92 15.36-30.72 30.72-30.72 17.92 0 30.72 15.36 30.72 30.72v256c0 17.92-12.8 30.72-30.72 30.72zm-179.2 0c-17.92 0-30.72-15.36-30.72-30.72V320c0-17.92 15.36-30.72 30.72-30.72 17.92 0 30.72 15.36 30.72 30.72v256c0 17.92-12.8 30.72-30.72 30.72z"/></font>
</defs>
</svg>
